<svg xmlns="http://www.w3.org/2000/svg" viewBox="422.6180829126147,211.9919816592486,234.15439518367657,80.01603668150278" width="234.15439518367657pt" height="80.01603668150278pt" xmlns:cricut="http://developer.cricut.com/schemas/svg/v1">
    <g cricut:canvasRootGraphic="true" cricut:graphicContainerSubtypeName="'GraphicGroup'" cricut:graphicId="'1A135781-27E1-4DAA-A7DD-3F77DB55BDB0'">
        <g transform="matrix(1.0,0.0,0.0,1.0,422.6118262065455,211.42989395847474)" cricut:graphicContainerSubtypeName="'GraphicGroup'" cricut:graphicId="'E74F20AA-7017-4408-8410-42BBAD584D1C'" cricut:nativeSize="{'Width':234.16065701352434,'Height':81.5577930014739}">
            <path visibility="hidden" stroke="rgb(0,0,0)" stroke-width="1.0pt" fill="rgb(236,205,194)" fill-rule="evenodd" transform="matrix(1.0,0.0,0.0,1.0,-33.005550384521484,-196.37820434570312)" d="M 101.23014954905744,276.44960396714805 C 93.06850626349058,274.2522881534922 88.05188100721689,271.0611996510879 84.68780998745902,265.92697832117847 C 82.81588126251407,263.0700539782511 79.0620982411394,252.38769565462135 79.02458831327112,249.8108195433951 C 79.011064740972,248.8817702922624 77.25452118055854,246.1048958025164 75.12115817901898,243.6399873439596 L 71.24231635803794,239.15833560112904 L 68.50352291551306,247.57773811279088 L 65.76472947298818,255.9971406244527 L 70.8910442187981,265.1898908299223 C 74.3967856712013,271.4765523118855 75.69285602602523,274.7071439739748 74.99086778035638,275.4091322196436 C 72.14806017291903,278.2519398270809 55.142449339801864,263.5451951655443 52.998671606397394,256.38990281054924 C 52.01984409244192,253.12286774514533 52.08051492966729,251.50468532876405 53.333842587906005,247.4503889755285 C 56.01333412287476,238.78270125050406 58.87309967163271,231.79770462764185 60.460375303525026,230.04378479675728 C 62.64169624506853,227.63345228737714 62.38931419930359,226.9995049895398 59.25,227.00349660702847 C 56.92378147282866,227.0064543786837 56.03769293873237,227.88542766145437 53.5,232.70732436402102 C 51.85,235.84250649650127 49.07499932226885,240.01646611354855 47.33333182726412,241.98279017968167 L 44.16666365452823,245.5579248453782 L 45.08463492426267,256.97765932569047 C 45.589519122616615,263.2585132898622 45.62726764961879,268.77273235038115 45.16852053982305,269.23147946017696 C 43.54459869874591,270.85540130125435 41.461375461196916,268.88868802211124 38.28375499865978,262.73176326580324 C 34.31250236577895,255.03710497127074 33.01278045884008,250.14433881451296 33.0055769344027,242.86221204544896 C 33.00086523193385,238.0990971321198 33.51916579779859,236.46968978427893 36.34633233597222,232.35971261333952 C 38.18681512075696,229.68412130068242 40.467480932035464,225.9966717073659 41.4144785832578,224.16538018374723 C 43.63294860414849,219.87533222067634 51.843128645178425,212.0 54.097113268041284,212.0 C 57.355013616803845,212.0 59.0,210.7898053143778 59.0,208.39301119581575 C 59.0,207.0768550381171 58.46,206.0 57.8,206.0 C 54.96844457872504,206.0 59.04739648399408,204.0226524987876 67.0,201.54012956425035 C 71.675,200.08075909574868 76.50328668394253,198.23287770773524 77.72952596431676,197.43372647977606 C 79.42458203542101,196.3290431097659 80.86292337371431,196.2062516373188 83.72952596431676,196.92150534347962 C 98.00338476589192,200.48301416319276 116.90386504662436,211.16344281924182 119.38811554125373,217.07173519451976 C 120.01779241857999,218.56929556584237 123.74015362543466,222.304010855249 127.6600293342641,225.3711025043123 C 139.99114908072187,235.0195396506151 147.99999999999994,249.09779173481894 148.0,261.12544945167116 C 148.0,266.68106068305326 146.17607253385253,270.8448867879059 144.26095483180785,269.6612789555858 C 143.68760570354397,269.30692970689853 141.99567225257712,266.65068088561065 140.50110271854822,263.75850379716815 C 137.3863735689589,257.7311172634267 134.4946554094864,254.2917728692595 131.83086515862374,253.44631868668557 C 130.8118251485428,253.12288795168152 129.29644441792422,251.54015367376653 128.46335242391578,249.92913140243002 C 127.3035581879489,247.68633665977467 126.25171475843983,247.0 123.9743198537684,247.0 C 121.10260761724913,247.0 117.0,244.0587758353007 117.0,242.0 C 117.0,241.45 116.1,241.0 115.0,241.0 C 111.42042302055907,241.0 113.4609290457831,246.58014668950966 117.99127750123706,249.18020973209337 C 120.03323804834193,250.35213418893062 121.08144975589991,251.91724326206574 121.57058448641163,254.52455553327093 C 122.11769553882341,257.4409081692265 122.94197035514901,258.49563363735336 125.51379758636872,259.5702116668845 C 127.53118108928906,260.4131283150408 129.00124950021777,261.86884239544645 129.38693313149935,263.4055283817063 C 129.78726936050367,265.0005949673917 131.9548479720649,267.060177557487 135.47591677668993,269.1911384814374 C 141.53361912370664,272.8572772894774 142.2732493104017,274.56541316913126 138.43490033882549,276.02475084706373 C 132.2328655274047,278.382760279551 122.1283227054343,276.35031468247917 110.0,270.3053047508818 L 101.5,266.0687268112501 L 105.07301721840628,269.3856287478359 C 107.03817668852973,271.2099248129581 109.47019787460906,273.16375573311035 110.477508743027,273.72747523706323 C 112.92433283561225,275.09678684381515 111.74582853558321,278.01970420274426 108.78138479633871,277.9341888880431 C 107.52662315835242,277.89799277646677 104.12856729707585,277.229929562064 101.23014954905744,276.44960396714805 Z M 188.75,277.4288068656913 C 187.2668575746488,275.921656914706 188.04969283792383,274.0248222035189 190.75,272.58274333183465 C 194.01505484377893,270.83906517875977 200.86724792769974,265.0057111861333 199.65437049939982,265.0023461409869 C 199.1892742740697,265.0010557634441 197.53044913848316,265.91022409033997 195.9680924203186,267.02272020075543 C 192.47483603276658,269.5101381499682 181.12526728611167,274.8785704353563 177.88377717376738,275.57673877149057 C 171.2477381402292,277.00604201474994 164.85544988777986,277.18276607019516 162.03591356464074,276.0148758855474 C 158.11701472321022,274.39161483585866 158.18712999417014,272.6277446973286 162.25,270.62916368298875 C 166.55784176149004,268.51007773021627 169.51092152652737,265.9980510626815 170.91260439680497,263.26035044851005 C 171.5432807817698,262.02854319519065 173.34288827303246,260.35692577779747 174.91173215516645,259.5456450765254 C 176.95151834234684,258.4908306445565 177.95676121232125,257.0440195640553 178.44015507316516,254.4673087590691 C 178.93737543279806,251.81689637921687 179.9979425758482,250.34374880530225 182.45070053444533,248.8965861932468 C 185.3110489461453,247.20893932847753 186.93350126957716,244.65252322217563 186.98634531670757,241.75 C 186.9938553925184,241.3375 186.1,241.0 185.0,241.0 C 183.9,241.0 183.0,241.45 183.0,242.0 C 183.0,243.9880461260427 178.93880782200762,247.00014068925205 176.25,247.00632262906453 C 174.24533689632207,247.01093162586596 173.0383004669981,247.8240264218537 171.79651031363056,250.00632262906453 C 170.85959098612736,251.65284518307905 169.48128202827206,253.0 168.73360151839654,253.0 C 166.70972728800658,253.0 162.56450575345755,257.7949893402802 159.277066995442,263.938856187934 C 155.86924262452342,270.30771070242906 154.38862131705523,271.15235084711804 153.0061526813696,267.51618277836894 C 148.67653622196022,256.12842850079903 157.0118604460766,237.7839996043395 171.99123079893357,225.73371502339663 C 176.11429345307064,222.41688146116795 180.1144452328506,218.40903838979125 180.88045697622243,216.82739708700393 C 181.64646871959428,215.2457557842166 183.56173434041452,213.19053297434778 185.13660280026744,212.2602352872954 C 186.71147126012033,211.329937600243 188.0,210.26816918685338 188.0,209.90074992420733 C 188.0,209.17345285256013 204.04473112719475,201.15457343812145 210.5,198.65563865406193 C 217.53041734814266,195.93405496732473 220.62412711225807,195.70459847950437 223.59088214775983,197.68470470449216 C 225.08678424381887,198.68311711702148 229.7282957089607,200.66338781599484 233.90535207029723,202.08530625776626 C 241.35713542754442,204.62197975775348 241.4939524556089,204.72944835706258 241.17851392615924,207.79831236713352 C 240.89884363025593,210.51919147876586 241.22401928590617,211.01084144724618 243.67851392615924,211.57819225618303 C 249.006635061633,212.80977524143364 254.14910636618362,217.33078226034627 259.46414124159026,225.45613685994766 C 266.7984377333005,236.66843576874808 267.0013189173527,237.1598810806148 266.9891757091068,243.68425854591067 C 266.9764201982322,250.53761772611142 265.1101865094193,257.24947013174454 261.5085305238022,263.3952313956227 C 255.3367154112707,273.9266376148414 253.49894574968505,272.13979430739744 254.9140701616675,256.98350983410876 L 255.96704502058003,245.70592436546264 L 252.73352251029002,242.05678993972384 C 250.9550851296305,240.04976600556753 248.15,235.84250649650124 246.5,232.70732436402102 C 243.9354333035688,227.83436455541195 243.09096930936457,227.00648570100705 240.6819057893618,227.00349660702847 L 237.8638115787236,227.0 L 239.79394003028614,229.75 C 241.88528886333518,232.7297028722254 248.0,250.0562902483395 248.0,253.00261355787143 C 248.0,258.37318626358245 235.73003015508078,272.50405419988215 229.04240223628761,274.83537384777856 C 223.61973374338095,276.72572626496606 223.68812565302386,274.80709606247984 229.4031318618718,264.7156570831677 L 234.85894032574447,255.08190408553367 L 232.42947016287224,250.04585494917762 C 231.0932615732925,247.2760279241818 230.0,244.36940386564282 230.0,243.58669037464657 C 230.0,242.8039768836503 229.74085897193635,241.48826424231854 229.42413104874743,240.66288450502043 C 228.58499436223667,238.47612935285053 222.0,246.0227653737126 222.0,249.171200794155 C 222.0,250.50704035736976 221.56472941295203,252.03527058704796 221.03273202878228,252.5672679712177 C 220.50073464461255,253.09926535538744 219.14444106435715,256.4175883184688 218.0187462948814,259.9413190002874 C 215.57877357669366,267.5790969868394 211.2107795225482,272.0059086772214 203.11010942685738,275.0507095253028 C 196.93071814219547,277.3733588372621 189.84944528533092,278.54604879712963 188.75,277.4288068656913 Z" cricut:graphicId="'DDEF59A5-6DB6-4152-BC6C-4C9DE368CD9A'" cricut:layerFillColorOriginal="'#ECCDC2'" cricut:layerGraphicId="'DDEF59A5-6DB6-4152-BC6C-4C9DE368CD9A'" cricut:layerImageDetails="[{'ImageSourceId':-427173213,'ImageSourceLayerPathIndex':[0,0],'ImageSourceName':'unnamed','ImageSourceSingleSetGroupId':13311789,'ImageSourceType':'UserVector','ImageSourceUuid':'ff661c79-ae60-4270-8125-4887eb8b0cb3'}]" cricut:layerName="'Path0'" cricut:layerNativeSize="{'Width':233.98404694852846,'Height':81.5577930014739}" cricut:nativeSize="{'Width':233.98404694852846,'Height':81.5577930014739}" />
            <path stroke="rgb(0,0,0)" stroke-width="1.0pt" fill="rgb(140,21,4)" fill-rule="evenodd" transform="matrix(1.0,0.0,0.0,1.0,-33.005550384521484,-196.37820434570312)" d="M 99.97163641818716,275.64514662084775 C 94.81205085605141,273.97057940733544 87.20749317541575,269.2463080239367 85.51592657950974,266.66465108308876 C 83.75026991708128,263.96991840821516 79.0037699959839,251.12351709092718 78.9907761165707,249.00433234379716 C 78.98570298068458,248.17694955470873 77.02978904644571,245.2901303988083 74.64430070715099,242.58917866401845 L 70.3070491811606,237.67835732803687 L 69.63297287381339,241.8937989750144 C 69.26223090477242,244.21229188085204 68.00341865099804,248.14193239054634 66.83561230987033,250.62633344100178 L 64.71232805327449,255.14342626001164 L 66.7562324492601,258.82171313000583 C 67.88037986705217,260.8447709085026 69.70279020120351,264.1258475276382 70.80603319181864,266.1129945058626 C 71.90927618243376,268.1001414840871 73.3997106698245,270.66717620651605 74.11810983046475,271.81751611126026 C 74.83650899110499,272.9678560160045 75.12478145677767,274.20855187655553 74.75871530973737,274.5746180235959 C 73.27202041776398,276.0613129155698 68.99088303340216,273.7266019366209 62.797765705047354,268.0517345340985 C 55.93084954318072,261.75945285804903 53.000000000000014,257.07646146588434 53.0,252.3965970788374 C 52.99999999999998,248.47596157256126 58.85287670202615,231.92879112322518 61.121520538018,229.4355487786324 C 63.634087617206916,226.67423449206225 63.534893578029575,226.44479711564057 59.717358454838546,226.18769974347475 C 56.654925029189414,225.98145577694672 56.239433639018806,226.3522968712778 53.523629985373475,231.71582643380867 C 51.92253217700649,234.87788692229537 48.96000469547329,239.2728961745239 46.94023558196636,241.48251366098316 L 43.267928102862854,245.5 L 44.10662452887735,253.0 C 44.567907563185315,257.125 45.1740150735455,262.4125 45.45353010745552,264.75 C 45.83961156705866,267.97868290552435 45.62331334922114,269.0 44.55344977904252,269.0 C 40.240847374772606,269.0 33.04077062349977,252.39922787621953 33.011868875386526,242.389289982791 C 33.002021846673884,238.97883378954782 34.164563571613435,236.50867772229157 39.83635415569266,227.88869756583864 C 46.85552904821778,217.2209644414744 52.474215713798515,212.0 56.93541969183178,212.0 C 59.05997196676783,212.0 59.21811275417269,211.66281902476328 58.74564569716199,208.1403140840982 L 58.22795318107215,204.28062816819642 L 65.86397659053608,201.95589236004682 C 70.06378946574124,200.67728766556453 74.85,198.95235784260782 76.5,198.12271497569859 C 80.20485464240537,196.25986271690633 82.42633486409079,196.49866898692312 90.85903250736524,199.66629252397505 C 104.54163724683589,204.80596936931914 116.81158170899081,212.69389142922418 119.07379472716391,217.804585326764 C 119.74335224327154,219.31722073471806 122.48757495683404,222.0690997498003 125.17206742396942,223.9198720269467 C 140.20109530860276,234.28134947635874 150.64183175121835,254.23898555957314 147.14288211016964,265.9174386132629 C 145.71424023867294,270.68582019585955 144.42267082572843,271.07950826557675 142.77115824966035,267.25 C 139.8935047216284,260.57733027240937 134.84650783177688,253.84245332116822 131.9731592474643,252.8407986102297 C 130.33792166135893,252.27075171770554 129.0,251.39837102891667 129.0,250.9021748573656 C 129.0,249.15317623270946 124.97260961187348,246.00010974237944 122.75,246.00901485413834 C 121.46562577937051,246.01416083025302 119.4270824673661,244.73192183788177 118.0,243.02127592413993 C 116.24128090293407,240.91309668039355 115.08922745435032,240.2855731186628 114.1146528798199,240.90492718492726 C 111.9514325735596,242.2796801570677 113.64134612616334,246.8881844737757 117.0160080900227,248.81711179929496 C 118.92332922439846,249.9073199131857 120.40745366777026,251.9060611352952 121.23011207241413,254.49244676293563 C 122.07566138091688,257.15079993434654 123.41892455793084,258.92334391475146 125.25,259.79701274067986 C 126.7625,260.5186783088246 128.0,261.5189189627658 128.0,262.01976974943807 C 128.0,263.9363893651806 133.97521685845078,269.61698327099145 137.40803071914976,270.9639140767353 C 142.1572529829852,272.8273631392435 141.95043394837788,274.6669865689223 136.83691339146742,276.0439146632133 C 129.30876825128513,278.0710336365416 118.07782641183869,274.74738774591253 103.08978483949996,266.0569067403046 C 101.21416650122494,264.96937135658703 99.21166650122493,263.61166650122493 98.63978483949995,263.03978483949993 C 98.06790317777498,262.467903177775 97.1275,262.00863276117144 96.55,262.0191839137143 C 95.27267458466784,262.0425211523361 101.91677288987981,268.03432528636756 107.75,272.1196073599642 C 110.0875,273.7566680584007 112.0,275.52446305176915 112.0,276.0480406785607 C 112.0,277.3261516273118 104.36287597445755,277.07034360596464 99.97163641818716,275.64514662084775 Z M 162.18206520282848,275.8636161243306 C 158.23404763084852,274.7260609844231 158.43508131461965,273.3085283582467 162.88270642984793,270.92324105924934 C 167.20378877589846,268.60581938567674 169.89599362653507,266.10180629462576 171.5913454407381,262.8233573957348 C 172.35396831746138,261.348607370686 173.98212801919038,259.99754512821664 175.209478111247,259.82099685691395 C 176.89165287495982,259.579024294656 177.76374667479337,258.39217193784765 178.751925024558,255.0 C 179.6849712108117,251.79708314751136 180.99055403852427,249.9196237675632 183.28141315797393,248.48648756559933 C 185.32768853743164,247.20636025415092 186.61076115997506,245.52278907852516 186.8040953052888,243.8642346861369 C 187.26122485966678,239.94266030995135 184.5089283581295,239.4765350287353 181.96783469186016,243.04517200985572 C 180.62466791273326,244.9314758102354 178.9843863899042,246.0 177.43190578936182,246.0 C 175.00999583569896,246.0 171.0,249.10890202773035 171.0,250.98657997913662 C 171.0,251.52919896766176 169.49597393549593,252.60158217308577 167.6577198566576,253.36965376896777 C 164.4584352112223,254.7064002457405 160.30319870851167,260.24480371877456 157.2438665485218,267.25 C 155.58492602329684,271.0486081243686 154.28772252223357,270.69237130789423 152.8988655471466,266.05677987452304 C 151.30941627502816,260.7516710247443 153.13470082478406,251.4775459625186 157.33837240315304,243.5 C 160.65272452506164,237.21016600712755 171.23389948572674,225.74521259629384 176.70761681735203,222.5129654185508 C 178.47180606689565,221.47120615745487 180.44224517380107,219.34653926588854 181.086370388253,217.79148343729224 C 183.19340331902814,212.70465595944802 193.56367682907916,205.92782572936176 208.02757474544785,200.18577921494796 C 217.02922209291992,196.61220049679073 220.66081174203651,196.12803357097482 224.0,198.05632055344915 C 225.375,198.8503442490521 229.8702667792949,200.6614667254325 233.9894817317664,202.08103716762776 L 241.4789634635328,204.6620743352555 L 241.1628639957668,208.33103716762776 C 240.8779928961537,211.63753269539376 241.0871093059632,212.0 243.2795799739533,212.0 C 247.69722916926878,212.0 254.47456016158426,218.39959800088985 260.9976637958078,228.7305704759743 L 267.16620227426716,238.5 L 266.658908822626,245.03976385091164 C 266.07227560571386,252.60233477173614 263.27883401783566,260.6345804133804 259.52273265174347,265.5590831720342 C 255.91875414545683,270.28414257979 253.80870561512398,270.15374369480264 254.52130573797368,265.25 C 254.8210232282934,263.1875 255.4364037230651,257.9 255.8888179485774,253.5 L 256.7113892676907,245.5 L 253.55133406331657,241.96366863905575 C 251.8133037009108,240.0186863905364 248.87974140387755,235.7436863905364 247.032306736576,232.46366863905575 C 245.18487206927446,229.18365088757508 243.55401204397674,226.3446777179645 243.4081733470255,226.15483937325442 C 243.26233465007425,225.96500102854435 241.72365460601915,226.12142194239578 239.98888436023637,226.50244140403538 L 236.83475664063133,227.19520406156195 L 238.79767793747345,229.347602030781 C 241.1559807066692,231.93354681592677 247.0,248.12021168865604 247.0,252.06625365395854 C 247.0,256.4015631764716 245.43064703251096,259.5753336620798 240.77766829394244,264.64994459503896 C 235.50839932946462,270.396691227298 229.3138880579193,275.0 226.84996150022312,275.0 C 224.5053461283913,275.0 224.50408295686086,273.52189137055194 226.84582049115912,270.1543704993998 C 227.86102176129663,268.6944667247299 230.16673626024308,264.7005993652464 231.9696304888179,261.27910970054745 L 235.24761999531756,255.05821940109493 L 233.24583189308746,250.77910970054745 C 232.14484843686088,248.42559936524637 230.9095655305501,244.4986306314213 230.50075876795236,242.05251251426955 L 229.75747374504738,237.60502502853913 L 225.38796075595297,242.55251251426955 C 222.98472861195106,245.2736306314213 221.0142970193154,248.1769495547087 221.00922388342929,249.0043323437971 C 220.99611310714738,251.14258191778433 216.24263174943297,263.9807518344343 214.45237154647788,266.7130342583536 C 212.34345072862865,269.9316542525509 206.3515945563835,273.68680828330224 200.48573182731423,275.4660620230066 C 194.92607141642438,277.15243741814504 189.40097627167788,277.457810230632 188.57680323155648,276.1242702391042 C 188.1516906964712,275.4364237082926 197.01575146731204,268.06967367997936 203.40075103955354,263.8043729868748 C 203.97348158669493,263.42177812965593 204.12037032459793,262.78703699126436 203.72717045711576,262.3938371237824 C 203.3339705896336,262.0006372563004 202.22200274553984,262.3759365895441 201.25613080357408,263.2278356421017 C 197.43376520476164,266.59916209924023 182.14204438065326,273.9929217378803 176.0,275.4395260536397 C 168.66891062988987,277.166180057545 166.89203375840285,277.2207146786081 162.18206520282848,275.8636161243306 Z" cricut:graphicId="'51C0FCAA-E61D-4835-BFC9-D394A1FDD2EE'" cricut:layerFillColorOriginal="'#8C1504'" cricut:layerGraphicId="'51C0FCAA-E61D-4835-BFC9-D394A1FDD2EE'" cricut:layerImageDetails="[{'ImageSourceId':-427173213,'ImageSourceLayerPathIndex':[0,1],'ImageSourceGlyphPathId':1,'ImageSourceName':'unnamed','ImageSourceSingleSetGroupId':13311789,'ImageSourceType':'UserVector','ImageSourceUuid':'ff661c79-ae60-4270-8125-4887eb8b0cb3'}]" cricut:layerName="'Path1'" cricut:layerNativeSize="{'Width':234.15439518367646,'Height':80.01603668150281}" cricut:nativeSize="{'Width':234.15439518367646,'Height':80.01603668150281}" />
        </g>
    </g>
</svg>