<svg xmlns="http://www.w3.org/2000/svg" width="32" height="32" viewBox="0 0 234.15 199">
  <!-- Claw (behind the eye) -->
  <g transform="translate(-33.01, -84.94)">
    <path fill="#f97316" fill-rule="evenodd" d="M 99.97163641818716,275.64514662084775 C 94.81205085605141,273.97057940733544 87.20749317541575,269.2463080239367 85.51592657950974,266.66465108308876 C 83.75026991708128,263.96991840821516 79.0037699959839,251.12351709092718 78.9907761165707,249.00433234379716 C 78.98570298068458,248.17694955470873 77.02978904644571,245.2901303988083 74.64430070715099,242.58917866401845 L 70.3070491811606,237.67835732803687 L 69.63297287381339,241.8937989750144 C 69.26223090477242,244.21229188085204 68.00341865099804,248.14193239054634 66.83561230987033,250.62633344100178 L 64.71232805327449,255.14342626001164 L 66.7562324492601,258.82171313000583 C 67.88037986705217,260.8447709085026 69.70279020120351,264.1258475276382 70.80603319181864,266.1129945058626 C 71.90927618243376,268.1001414840871 73.3997106698245,270.66717620651605 74.11810983046475,271.81751611126026 C 74.83650899110499,272.9678560160045 75.12478145677767,274.20855187655553 74.75871530973737,274.5746180235959 C 73.27202041776398,276.0613129155698 68.99088303340216,273.7266019366209 62.797765705047354,268.0517345340985 C 55.93084954318072,261.75945285804903 53.000000000000014,257.07646146588434 53.0,252.3965970788374 C 52.99999999999998,248.47596157256126 58.85287670202615,231.92879112322518 61.121520538018,229.4355487786324 C 63.634087617206916,226.67423449206225 63.534893578029575,226.44479711564057 59.717358454838546,226.18769974347475 C 56.654925029189414,225.98145577694672 56.239433639018806,226.3522968712778 53.523629985373475,231.71582643380867 C 51.92253217700649,234.87788692229537 48.96000469547329,239.2728961745239 46.94023558196636,241.48251366098316 L 43.267928102862854,245.5 L 44.10662452887735,253.0 C 44.567907563185315,257.125 45.1740150735455,262.4125 45.45353010745552,264.75 C 45.83961156705866,267.97868290552435 45.62331334922114,269.0 44.55344977904252,269.0 C 40.240847374772606,269.0 33.04077062349977,252.39922787621953 33.011868875386526,242.389289982791 C 33.002021846673884,238.97883378954782 34.164563571613435,236.50867772229157 39.83635415569266,227.88869756583864 C 46.85552904821778,217.2209644414744 52.474215713798515,212.0 56.93541969183178,212.0 C 59.05997196676783,212.0 59.21811275417269,211.66281902476328 58.74564569716199,208.1403140840982 L 58.22795318107215,204.28062816819642 L 65.86397659053608,201.95589236004682 C 70.06378946574124,200.67728766556453 74.85,198.95235784260782 76.5,198.12271497569859 C 80.20485464240537,196.25986271690633 82.42633486409079,196.49866898692312 90.85903250736524,199.66629252397505 C 104.54163724683589,204.80596936931914 116.81158170899081,212.69389142922418 119.07379472716391,217.804585326764 C 119.74335224327154,219.31722073471806 122.48757495683404,222.0690997498003 125.17206742396942,223.9198720269467 C 140.20109530860276,234.28134947635874 150.64183175121835,254.23898555957314 147.14288211016964,265.9174386132629 C 145.71424023867294,270.68582019585955 144.42267082572843,271.07950826557675 142.77115824966035,267.25 C 139.8935047216284,260.57733027240937 134.84650783177688,253.84245332116822 131.9731592474643,252.8407986102297 C 130.33792166135893,252.27075171770554 129.0,251.39837102891667 129.0,250.9021748573656 C 129.0,249.15317623270946 124.97260961187348,246.00010974237944 122.75,246.00901485413834 C 121.46562577937051,246.01416083025302 119.4270824673661,244.73192183788177 118.0,243.02127592413993 C 116.24128090293407,240.91309668039355 115.08922745435032,240.2855731186628 114.1146528798199,240.90492718492726 C 111.9514325735596,242.2796801570677 113.64134612616334,246.8881844737757 117.0160080900227,248.81711179929496 C 118.92332922439846,249.9073199131857 120.40745366777026,251.9060611352952 121.23011207241413,254.49244676293563 C 122.07566138091688,257.15079993434654 123.41892455793084,258.92334391475146 125.25,259.79701274067986 C 126.7625,260.5186783088246 128.0,261.5189189627658 128.0,262.01976974943807 C 128.0,263.9363893651806 133.97521685845078,269.61698327099145 137.40803071914976,270.9639140767353 C 142.1572529829852,272.8273631392435 141.95043394837788,274.6669865689223 136.83691339146742,276.0439146632133 C 129.30876825128513,278.0710336365416 118.07782641183869,274.74738774591253 103.08978483949996,266.0569067403046 C 101.21416650122494,264.96937135658703 99.21166650122493,263.61166650122493 98.63978483949995,263.03978483949993 C 98.06790317777498,262.467903177775 97.1275,262.00863276117144 96.55,262.0191839137143 C 95.27267458466784,262.0425211523361 101.91677288987981,268.03432528636756 107.75,272.1196073599642 C 110.0875,273.7566680584007 112.0,275.52446305176915 112.0,276.0480406785607 C 112.0,277.3261516273118 104.36287597445755,277.07034360596464 99.97163641818716,275.64514662084775 Z M 162.18206520282848,275.8636161243306 C 158.23404763084852,274.7260609844231 158.43508131461965,273.3085283582467 162.88270642984793,270.92324105924934 C 167.20378877589846,268.60581938567674 169.89599362653507,266.10180629462576 171.5913454407381,262.8233573957348 C 172.35396831746138,261.348607370686 173.98212801919038,259.99754512821664 175.209478111247,259.82099685691395 C 176.89165287495982,259.579024294656 177.76374667479337,258.39217193784765 178.751925024558,255.0 C 179.6849712108117,251.79708314751136 180.99055403852427,249.9196237675632 183.28141315797393,248.48648756559933 C 185.32768853743164,247.20636025415092 186.61076115997506,245.52278907852516 186.8040953052888,243.8642346861369 C 187.26122485966678,239.94266030995135 184.5089283581295,239.4765350287353 181.96783469186016,243.04517200985572 C 180.62466791273326,244.9314758102354 178.9843863899042,246.0 177.43190578936182,246.0 C 175.00999583569896,246.0 171.0,249.10890202773035 171.0,250.98657997913662 C 171.0,251.52919896766176 169.49597393549593,252.60158217308577 167.6577198566576,253.36965376896777 C 164.4584352112223,254.7064002457405 160.30319870851167,260.24480371877456 157.2438665485218,267.25 C 155.58492602329684,271.0486081243686 154.28772252223357,270.69237130789423 152.8988655471466,266.05677987452304 C 151.30941627502816,260.7516710247443 153.13470082478406,251.4775459625186 157.33837240315304,243.5 C 160.65272452506164,237.21016600712755 171.23389948572674,225.74521259629384 176.70761681735203,222.5129654185508 C 178.47180606689565,221.47120615745487 180.44224517380107,219.34653926588854 181.086370388253,217.79148343729224 C 183.19340331902814,212.70465595944802 193.56367682907916,205.92782572936176 208.02757474544785,200.18577921494796 C 217.02922209291992,196.61220049679073 220.66081174203651,196.12803357097482 224.0,198.05632055344915 C 225.375,198.8503442490521 229.8702667792949,200.6614667254325 233.9894817317664,202.08103716762776 L 241.4789634635328,204.6620743352555 L 241.1628639957668,208.33103716762776 C 240.8779928961537,211.63753269539376 241.0871093059632,212.0 243.2795799739533,212.0 C 247.69722916926878,212.0 254.47456016158426,218.39959800088985 260.9976637958078,228.7305704759743 L 267.16620227426716,238.5 L 266.658908822626,245.03976385091164 C 266.07227560571386,252.60233477173614 263.27883401783566,260.6345804133804 259.52273265174347,265.5590831720342 C 255.91875414545683,270.28414257979 253.80870561512398,270.15374369480264 254.52130573797368,265.25 C 254.8210232282934,263.1875 255.4364037230651,257.9 255.8888179485774,253.5 L 256.7113892676907,245.5 L 253.55133406331657,241.96366863905575 C 251.8133037009108,240.0186863905364 248.87974140387755,235.7436863905364 247.032306736576,232.46366863905575 C 245.18487206927446,229.18365088757508 243.55401204397674,226.3446777179645 243.4081733470255,226.15483937325442 C 243.26233465007425,225.96500102854435 241.72365460601915,226.12142194239578 239.98888436023637,226.50244140403538 L 236.83475664063133,227.19520406156195 L 238.79767793747345,229.347602030781 C 241.1559807066692,231.93354681592677 247.0,248.12021168865604 247.0,252.06625365395854 C 247.0,256.4015631764716 245.43064703251096,259.5753336620798 240.77766829394244,264.64994459503896 C 235.50839932946462,270.396691227298 229.3138880579193,275.0 226.84996150022312,275.0 C 224.5053461283913,275.0 224.50408295686086,273.52189137055194 226.84582049115912,270.1543704993998 C 227.86102176129663,268.6944667247299 230.16673626024308,264.7005993652464 231.9696304888179,261.27910970054745 L 235.24761999531756,255.05821940109493 L 233.24583189308746,250.77910970054745 C 232.14484843686088,248.42559936524637 230.9095655305501,244.4986306314213 230.50075876795236,242.05251251426955 L 229.75747374504738,237.60502502853913 L 225.38796075595297,242.55251251426955 C 222.98472861195106,245.2736306314213 221.0142970193154,248.1769495547087 221.00922388342929,249.0043323437971 C 220.99611310714738,251.14258191778433 216.24263174943297,263.9807518344343 214.45237154647788,266.7130342583536 C 212.34345072862865,269.9316542525509 206.3515945563835,273.68680828330224 200.48573182731423,275.4660620230066 C 194.92607141642438,277.15243741814504 189.40097627167788,277.457810230632 188.57680323155648,276.1242702391042 C 188.1516906964712,275.4364237082926 197.01575146731204,268.06967367997936 203.40075103955354,263.8043729868748 C 203.97348158669493,263.42177812965593 204.12037032459793,262.78703699126436 203.72717045711576,262.3938371237824 C 203.3339705896336,262.0006372563004 202.22200274553984,262.3759365895441 201.25613080357408,263.2278356421017 C 197.43376520476164,266.59916209924023 182.14204438065326,273.9929217378803 176.0,275.4395260536397 C 168.66891062988987,277.166180057545 166.89203375840285,277.2207146786081 162.18206520282848,275.8636161243306 Z"/>
  </g>

  <!-- Eye (in front) -->
  <g transform="translate(17.56, 0) scale(6.22)">
    <path d="M16 6C8 6 2 16 2 16s6 10 14 10 14-10 14-10-6-10-14-10z" fill="#f97316" opacity="0.25"/>
    <path d="M16 6C8 6 2 16 2 16s6 10 14 10 14-10 14-10-6-10-14-10z" fill="none" stroke="#f97316" stroke-width="2" stroke-linecap="round" stroke-linejoin="round"/>
    <circle cx="16" cy="16" r="5" fill="#f97316"/>
    <circle cx="16" cy="16" r="2" fill="#0d1117"/>
  </g>
</svg>
