<svg xmlns="http://www.w3.org/2000/svg" width="32" height="32" viewBox="0 0 174.16 174.16">
  <g transform="translate(-12.44, -12.44) scale(6.22)">
    <g transform="translate(16, 16) scale(0.0547) translate(-256, -256)">
      <path fill="#E5E4DF" d="M256 0c141.4 0 256 114.6 256 256S397.4 512 256 512S0 397.3 0 256C0 114.6 114.6 0 256 0z"/>
      <path fill="#B171FF" d="M256 80c97.2 0 176 78.8 176 176s-78.8 176-176 176S80 353.2 80 256S158.8 80 256 80z"/>
      <path fill="#2B3B47" d="M256 160c53 0 96 43 96 96s-43 96-96 96s-96-43-96-96s43-96 96-96z"/>
      <path fill="#D4EDF6" d="M327.9 160c22.1 0 40 17.9 40 40s-17.9 40-40 40s-40-17.9-40-40s18-40 40-40z"/>
      <path fill="#D6DBDE" d="M349.2 233.7c-6.5-27.3-24.5-50-48.7-62.7c-7.7 7.3-12.6 17.5-12.6 29c0 22.1 17.9 40 40 40c7.9-.1 15.2-2.4 21.3-6.3z"/>
      <path fill="#f97316" d="M256 0c141.4 0 256 114.6 256 256H0C0 114.6 114.6 0 256 0z"/>
      <path fill="#FFD700" d="M402,30 L430,112 L512,140 L430,168 L402,250 L374,168 L292,140 L374,112 Z"/>
    </g>
  </g>
</svg>
